# xmcd CD database file
#
# Track frame offsets:
#	150
#	19750
#	41565
#	68655
#
# Disc length: 1287 seconds
#
# Revision: 0
# Processed by: cddbd v1.5.1PL0 Copyright (c) Steve Scherf et al.
# Submitted via: CDex 1.51
#
DISCID=2a050504
DTITLE=Toshi Kubota - Nothing But Your Love
DYEAR=2000
DGENRE=R&B
TTITLE0=Nothing But Your Love - Album Mix
TTITLE1=Nothing But Your Love - Jay Dee Remix
TTITLE2=Nothing But Your Love - Rick Pier O'Neil Mix
TTITLE3=Nothing But Your Love - Datcyde Jungle Remix
EXTD=YEAR: 2000
EXTT0=
EXTT1=
EXTT2=
EXTT3=
PLAYORDER=
